<svg xmlns="http://www.w3.org/2000/svg" viewBox="0 0 64 64">
  <rect x="3" y="3" width="58" height="58" rx="18" fill="#f7f2e5" stroke="#b88a32" stroke-width="2"/>
  <g fill="none" stroke="#b88a32" stroke-linecap="round" stroke-linejoin="round" stroke-width="2">
    <path d="M32 8c-1 6-5 8-8 10 4 0 7 2 8 6 1-4 4-6 8-6-3-2-7-4-8-10Z"/>
    <path d="M23 16c-5-2-8 1-10 4 4-1 7 0 9 3M41 16c5-2 8 1 10 4-4-1-7 0-9 3"/>
  </g>
  <text x="32" y="53" text-anchor="middle" fill="#0b4a36" font-family="Georgia,serif" font-size="37" font-weight="700">R</text>
</svg>
